<svg aria-hidden="true" xmlns="http://www.w3.org/2000/svg"><defs><symbol id="icon-logo" viewBox="0 0 44 32"><path fill="#ffe550" style="fill:var(--color2,#ffe550)" d="M16.394 6.486c1.012-1.99 3.854-1.99 4.865 0l1.259 2.476a2.737 2.737 0 0 0 1.987 1.456l.016.002 2.751.439c2.197.351 3.074 3.042 1.504 4.62l-1.981 1.991a2.72 2.72 0 0 0-.759 2.364l-.002-.016.435 2.769c.346 2.202-1.951 3.868-3.937 2.854l-2.465-1.258c-.361-.188-.788-.298-1.241-.298s-.88.11-1.256.306l.015-.007-2.465 1.258c-1.985 1.014-4.283-.652-3.937-2.854l.435-2.769a2.718 2.718 0 0 0-.762-2.349l-1.982-1.99c-1.569-1.577-.692-4.269 1.505-4.62l2.751-.439a2.736 2.736 0 0 0 1.995-1.443l.007-.015 1.259-2.476z"/><path fill="#2c2c2c" style="fill:var(--color4,#2c2c2c)" d="m3.426 20.356-.021.005c.002.074-.002.374-.012.9-.003.524-.004.869-.003 1.033 0 .158-.004.286-.01.384l.001.337c0 .104-.007.207-.021.308l.001-.012-.018.207c-.014.13-.042.201-.085.211-.092.022-.236-.049-.431-.212-.198-.17-.311-.319-.342-.446s-.037-1.061-.02-2.8c.023-1.74-.023-2.885-.137-3.434a.428.428 0 0 1 .016-.275l-.001.003c.036-.166.22-.321.551-.468.339-.148.845-.302 1.518-.461.68-.161 1.219-.252 1.618-.272.406-.022.624.031.654.159.02.085-.026.159-.138.223s-.212.117-.298.16c-.089.037-.205.082-.349.139-.145.049-.28.097-.404.141-.126.037-.289.091-.489.161-.193.068-.372.133-.537.194-.166.055-.391.134-.673.238s-.465.17-.548.197c.012.02.023.051.033.094.078.333.121 1.13.127 2.393a10.79 10.79 0 0 0 1.482-.39l-.077.023c.5-.164.806-.258.919-.286.27-.063.417-.039.444.074.052.22-.212.477-.794.772a8.709 8.709 0 0 1-1.954.7zm6.934-1.959a1.997 1.997 0 0 0-.282-.66l.005.008c-.129-.201-.281-.334-.453-.398-.457.25-.788.729-.996 1.436-.202.699-.238 1.321-.11 1.866s.343.853.644.924c.486-.22.836-.67 1.05-1.348.219-.688.266-1.297.142-1.828zm-2.77.758c.117-.611.332-1.141.646-1.589.318-.457.686-.735 1.104-.834.425-.101.822-.004 1.19.289.367.287.611.689.733 1.206.121.511.12 1.064-.001 1.661a3.781 3.781 0 0 1-.724 1.581l.006-.008c-.35.449-.769.732-1.258.849-.361.086-.702-.009-1.02-.286s-.539-.668-.659-1.178c-.122-.517-.128-1.08-.017-1.69zm7.582-1.9a2.018 2.018 0 0 0-.282-.66l.005.008c-.129-.201-.281-.334-.452-.398-.457.25-.789.729-.996 1.437-.201.698-.238 1.321-.11 1.866s.343.854.644.924c.486-.22.837-.67 1.05-1.349.219-.688.266-1.297.14-1.828zm-2.77.758c.118-.611.332-1.141.646-1.589.318-.457.686-.735 1.104-.834.425-.101.822-.004 1.19.29.367.287.611.689.733 1.206.121.51.12 1.063-.001 1.66a3.792 3.792 0 0 1-.717 1.572c-.351.45-.769.732-1.258.849-.361.086-.702-.009-1.021-.285s-.539-.669-.659-1.179c-.122-.517-.127-1.08-.017-1.69zm7.794-6.999c.113-.027.277.047.49.22.218.165.349.34.393.524s.078.729.105 1.636c.025.898.03 1.836.014 2.812-.023 2.19-.115 3.303-.278 3.342-.1.023-.223-.01-.372-.102-.143-.101-.226-.197-.247-.289s-.041-.282-.055-.57c-.527.873-1.049 1.371-1.566 1.494-.311.074-.628 0-.95-.223-.315-.225-.508-.489-.58-.794-.104-.439-.11-.987-.018-1.644a5.594 5.594 0 0 1 .655-1.93l-.015.028c.329-.602.745-.962 1.247-1.082s.924.098 1.265.654c.007-1.588-.074-2.821-.244-3.7-.05-.212.002-.337.158-.374zm.061 5.494c-.09-.382-.233-.689-.43-.919-.189-.232-.375-.326-.56-.282-.304.073-.572.334-.802.785a4.556 4.556 0 0 0-.456 1.452l-.003.025c-.07.526-.064.966.02 1.32a.396.396 0 0 0 .208.274l.002.001a.51.51 0 0 0 .357.039c.276-.066.601-.352.975-.86a3.57 3.57 0 0 0 .7-1.647l.002-.135-.012-.053zm6.78-.644c.137.581-.01 1.132-.44 1.652a3.033 3.033 0 0 1-1.668 1.013c-.673.16-1.27.118-1.791-.125-.522-.25-.82-.53-.894-.842-.05-.212-.012-.334.116-.364.113-.027.377.09.79.351.156.09.353.163.59.219.244.054.487.053.728-.004a2.39 2.39 0 0 0 1.226-.695c.329-.347.459-.67.389-.967-.046-.191-.23-.406-.555-.642a7.465 7.465 0 0 0-1.005-.618l-.043-.02a8.086 8.086 0 0 1-1.063-.677l.021.015c-.326-.244-.511-.455-.553-.632a1.652 1.652 0 0 1-.025-.597l-.001.009c.024-.215.068-.378.131-.491.204-.37.566-.751 1.087-1.145.528-.394.99-.638 1.386-.732.205-.049.394-.023.568.078s.277.226.313.375c.017.071-.044.145-.183.223s-.351.188-.639.332a5.245 5.245 0 0 0-.742.423c-.74.505-1.077.902-1.009 1.193.037.156.554.493 1.551 1.012.414.221.772.474 1.093.767l-.004-.004c.347.299.556.597.626.895zm2.438.532c.032.135.126.183.282.146.269-.064.577-.215.924-.455.353-.248.55-.377.593-.387.127-.031.207.022.239.156.049.206-.108.494-.47.863-.354.368-.705.593-1.052.676-.34.081-.645.055-.914-.074-.272-.137-.431-.305-.478-.504s-.063-.46-.05-.784c.011-.332.036-.768.073-1.308.043-.549.071-1.001.084-1.355-.314.157-.528.249-.641.276s-.24-.003-.38-.089c-.135-.095-.214-.196-.24-.302-.039-.17.382-.442 1.266-.817a7.66 7.66 0 0 0-.177-1.607c-.05-.213-.005-.336.137-.369.12-.029.287.014.501.127.212.107.341.256.386.447s.064.542.057 1.052a9.94 9.94 0 0 1 .871-.265l.083-.018c.425-.1.659-.059.703.126.025.106-.071.222-.288.348-.21.125-.665.349-1.367.673a47.648 47.648 0 0 1-.12 2.218l.01-.162c-.058.769-.068 1.231-.031 1.387zm4.751-5.57c.319-.076.651.017.997.279.345.255.548.513.609.775.06.255.033.538-.08.849.11.086.174.168.193.246.047.198.081.549.102 1.052.029.502.049.83.063.983a3.387 3.387 0 0 1 .05.64c.014.183-.03.287-.129.311-.127.031-.259-.054-.396-.254a3.2 3.2 0 0 1-.343-.839c-.441.95-.931 1.489-1.469 1.617-.326.077-.681.015-1.065-.185-.378-.21-.602-.463-.673-.761-.1-.425-.068-.986.097-1.684.163-.704.434-1.359.815-1.966s.79-.962 1.23-1.066zm.929 1.754c-.155-.658-.363-.957-.625-.895-.276.066-.551.34-.826.825a5.775 5.775 0 0 0-.613 1.509l-.009.041c-.138.556-.172.98-.105 1.27a.373.373 0 0 0 .217.261l.002.001a.603.603 0 0 0 .375.023c.333-.079.656-.391.969-.936.311-.553.471-1.17.482-1.854-.004-.111.041-.19.135-.234l-.002-.011z"/><path fill="#bbf330" style="fill:var(--color5,#bbf330)" d="M32.978 19.975a.923.923 0 0 0-.641.597l-.002.006c-1.902 5.652-7.227 9.717-13.492 9.717a14.157 14.157 0 0 1-9.808-3.934.914.914 0 0 0-.857-.233l.006-.001c-.639.159-.881.932-.408 1.39a15.862 15.862 0 0 0 11.066 4.482c7.06 0 13.048-4.606 15.145-10.986.206-.626-.371-1.198-1.01-1.04zM4.172 14.148a.905.905 0 0 0 .665-.725C6.046 6.755 11.862 1.706 18.844 1.706c4.541 0 8.588 2.135 11.196 5.463.22.281.582.416.928.33.583-.145.847-.823.48-1.298-2.918-3.772-7.478-6.2-12.604-6.2-7.862 0-14.394 5.711-15.705 13.223-.103.593.448 1.07 1.032.925z"/><path fill="#bbf330" style="fill:var(--color5,#bbf330);stroke:var(--color5,#bbf330)" stroke="#bbf330" stroke-linejoin="round" stroke-width=".628" d="M42.815 5.332c-3.767 7.241-5.422 2.465-10.725 5.27.53-8.406 6.148-3.291 10.725-5.27z"/></symbol><symbol id="icon-menu" viewBox="0 0 32 32"><path d="M2.666 8c0-.737.597-1.334 1.334-1.334h24a1.334 1.334 0 1 1 0 2.668H4A1.334 1.334 0 0 1 2.666 8zm0 8.042A1.335 1.335 0 0 1 4 14.709h24l.039-.001a1.334 1.334 0 1 1 0 2.668l-.041-.001H28 4a1.334 1.334 0 0 1-1.334-1.334zM4 22.752a1.334 1.334 0 0 0-.002 2.666H28l.039.001a1.334 1.334 0 1 0 0-2.668l-.041.001H28 4z"/></symbol><symbol id="icon-arrow-left" viewBox="0 0 18 32"><path d="m.48 16.965 14.862 14.16c.239.228.563.368.92.368s.681-.14.921-.369h-.001l.016-.016a1.223 1.223 0 0 0 0-1.779h-.001L3.202 15.996 17.197 2.669a1.223 1.223 0 0 0 0-1.779h-.001L17.18.874c-.239-.228-.563-.368-.92-.368s-.681.14-.921.369h.001L.478 15.035c-.255.243-.413.586-.413.965s.158.722.413.965h.001z"/></symbol><symbol id="icon-arrow-right" viewBox="0 0 18 32"><path d="M17.653 15.035 2.791.875c-.239-.228-.563-.368-.92-.368S1.19.647.95.876h.001L.935.892A1.224 1.224 0 0 0 .934 2.67l13.995 13.333L.934 29.331a1.224 1.224 0 0 0-.001 1.779h.001l.016.016c.239.228.563.368.92.368s.681-.14.921-.369H2.79l14.862-14.16c.255-.243.413-.586.413-.965s-.158-.722-.413-.965z"/></symbol><symbol id="icon-arrow" viewBox="0 0 19 32"><path d="M17.904 15.594c.228.229.369.544.369.893s-.141.664-.369.893L5.014 30.273c-.229.228-.544.369-.893.369s-.664-.141-.893-.369l-.598-.595c-.23-.229-.372-.546-.372-.896s.142-.667.372-.896l11.398-11.395L2.63 5.089a1.26 1.26 0 0 1 0-1.788l.595-.595c.229-.23.546-.372.896-.372s.667.142.896.372l12.886 12.89z"/></symbol><symbol id="icon-star" viewBox="0 0 36 32"><path fill="#ffe550" style="fill:var(--color2,#ffe550)" d="M17.156 1.038c.594-1.384 2.612-1.384 3.204 0l3.5 8.162c.248.582.814.98 1.46 1.032l9.08.706c1.54.12 2.164 1.982.992 2.958l-6.92 5.752a1.655 1.655 0 0 0-.556 1.681l-.002-.011 2.114 8.6c.36 1.456-1.274 2.608-2.592 1.828l-7.774-4.61a1.778 1.778 0 0 0-1.816.004l.008-.005-7.774 4.612c-1.316.78-2.95-.372-2.592-1.828l2.114-8.6a1.653 1.653 0 0 0-.558-1.668l-.003-.002-6.914-5.752c-1.172-.976-.548-2.84.99-2.96l9.08-.704a1.735 1.735 0 0 0 1.458-1.021l.004-.011 3.5-8.164z"/></symbol></defs></svg>