<svg width="32" height="32" fill="none" xmlns="http://www.w3.org/2000/svg"><path d="m7.23333 13.6334 3.53337 1.5c.4-.8.8277-1.5889 1.2833-2.3667.4556-.7778.9389-1.5222 1.45-2.2333L10.8667 10l-3.63337 3.6334Zm5.13337 2.7L16.8 20.7667c1.2667-.5778 2.4556-1.2333 3.5667-1.9667 1.1111-.7333 2.0111-1.4444 2.7-2.1333 1.8-1.8 3.1222-3.6444 3.9666-5.5333.8445-1.88892 1.3-4.02226 1.3667-6.40003-2.3778.06666-4.5111.52222-6.4 1.36666-1.8889.84445-3.7333 2.16667-5.5333 3.96667-.6889.6889-1.4 1.5889-2.1334 2.7-.7333 1.1111-1.3889 2.3-1.9666 3.5667Zm7.6333-3.2c-.4444-.4445-.6667-.9945-.6667-1.65 0-.6556.2223-1.2056.6667-1.65003.4444-.44445.9944-.66667 1.65-.66667s1.2056.22222 1.65.66667c.4444.44443.6667.99443.6667 1.65003 0 .6555-.2223 1.2055-.6667 1.65-.4444.4444-.9944.6666-1.65.6666s-1.2056-.2222-1.65-.6666ZM19.5 25.9l3.6333-3.6333-.5333-2.6333c-.7111.5111-1.4556.9944-2.2333 1.45-.7778.4555-1.5667.8833-2.3667 1.2833L19.5 25.9ZM30.3667 2.7667c.2 3.02222-.1778 5.77778-1.1334 8.2667-.9555 2.4889-2.5333 4.8333-4.7333 7.0333l-.0667.0667-.0666.0666.7333 3.6667c.0667.3333.05.6556-.05.9667-.1.3111-.2722.5889-.5167.8333l-5.7 5.7333L16 22.8l-5.6667-5.6666L3.73333 14.3l5.73334-5.69997c.24444-.24444.52222-.41666.83333-.51666.3111-.1.6333-.11667.9667-.05l3.6666.73333c.0223-.02222.0445-.03889.0667-.05.0222-.01111.0444-.02778.0667-.05 2.2-2.2 4.5444-3.78333 7.0333-4.75 2.4889-.96667 5.2444-1.35 8.2667-1.15Zm-24.40003 18.4c.77777-.7778 1.72777-1.1722 2.85-1.1833 1.12222-.0111 2.07223.3722 2.85003 1.15.7777.7777 1.1611 1.7277 1.15 2.85-.0111 1.1222-.4056 2.0722-1.1834 2.85-.5777.5777-1.4722 1.0555-2.6833 1.4333-1.21111.3778-3.02778.7333-5.45 1.0667.33333-2.4223.68333-4.2445 1.05-5.4667.36667-1.2222.83889-2.1222 1.41667-2.7Zm1.4 1.4333c-.31111.3334-.58889.8556-.83334 1.5667-.24444.7111-.45555 1.6222-.63333 2.7333 1.11111-.1777 2.02222-.3889 2.73333-.6333.71111-.2444 1.23334-.5222 1.56667-.8333.4222-.3778.6389-.85.65-1.4167.0111-.5667-.1833-1.0611-.5833-1.4833-.42226-.4-.9167-.5945-1.48337-.5834-.56666.0111-1.03889.2278-1.41666.65Z" fill="#7EB101"/></svg>