<svg width="32" height="32" fill="none" xmlns="http://www.w3.org/2000/svg"><path d="M15.5003 1.33331c2.0222 0 3.75.70556 5.1833 2.11667s2.15 3.12778 2.15 5.15c0 1.15556-.25 2.24442-.75 3.26662-.5 1.0223-1.2056 1.8889-2.1167 2.6h-1.1333V12.8c.6444-.5111 1.1389-1.1334 1.4833-1.8667.3445-.7333.5167-1.5111.5167-2.33332 0-1.46667-.5222-2.71111-1.5667-3.73333-1.0444-1.02223-2.3-1.53334-3.7666-1.53334-1.4667 0-2.7223.51111-3.7667 1.53334-1.0445 1.02222-1.5667 2.26666-1.5667 3.73333 0 .82222.1722 1.60002.5167 2.33332.3444.7333.8389 1.3556 1.4833 1.8667v2.4c-1.2444-.6445-2.22219-1.5556-2.93331-2.7334-.71111-1.1777-1.06666-2.46662-1.06666-3.86662 0-2.02222.71666-3.73889 2.14997-5.15 1.4334-1.41111 3.1611-2.11667 5.1834-2.11667ZM14.2336 29.3333c-.3778 0-.7333-.0722-1.0667-.2167-.3333-.1444-.6222-.3388-.8666-.5833l-6.86671-6.8667 1.86667-1.9333c.31111-.3111.66111-.55 1.05-.7167.38889-.1666.79445-.1944 1.21667-.0833l2.59997.6V8.66665c0-.93334.3222-1.72223.9667-2.36667.6444-.64444 1.4333-.96667 2.3667-.96667.9333 0 1.7222.32223 2.3666.96667.6445.64444.9667 1.43333.9667 2.36667V14.4h.8667c.1111 0 .2111.0222.3.0666.0888.0445.1888.0889.3.1334l4.9333 2.4c.5333.2444.9278.6389 1.1833 1.1833.2556.5445.3278 1.1056.2167 1.6833l-1.2 7.2667c-.1111.6445-.4222 1.1722-.9333 1.5833-.5112.4112-1.0889.6167-1.7334.6167h-8.5333Zm-.2667-2h9.3667l1.4333-8.3-6.1-3.0333h-1.8333V8.66665c0-.4-.1222-.72223-.3667-.96667-.2444-.24444-.5666-.36667-.9666-.36667s-.7223.12223-.9667.36667c-.2445.24444-.3667.56667-.3667.96667V21.9666l-5.13331-1.1-.76666.7667 5.69997 5.7Zm9.3667 0h-9.3667 9.3667Z" fill="#7EB101"/></svg>