<svg aria-hidden="true" xmlns="http://www.w3.org/2000/svg">
    <defs>
        <!-- Logo icon -->
        <symbol id="icon-logo" viewBox="0 0 44 32">
            <path fill="#ffe550" style="fill: var(--color2, #ffe550)" d="M16.394 6.486c1.012-1.99 3.854-1.99 4.865 0l1.259 2.476c0.396 0.767 1.123 1.314 1.987 1.456l0.016 0.002 2.751 0.439c2.197 0.351 3.074 3.042 1.504 4.62l-1.981 1.991c-0.491 0.493-0.794 1.174-0.794 1.925 0 0.15 0.012 0.296 0.035 0.439l-0.002-0.016 0.435 2.769c0.346 2.202-1.951 3.868-3.937 2.854l-2.465-1.258c-0.361-0.188-0.788-0.298-1.241-0.298s-0.88 0.11-1.256 0.306l0.015-0.007-2.465 1.258c-1.985 1.014-4.283-0.652-3.937-2.854l0.435-2.769c0.021-0.128 0.033-0.274 0.033-0.424 0-0.751-0.303-1.431-0.795-1.925l0 0-1.982-1.99c-1.569-1.577-0.692-4.269 1.505-4.62l2.751-0.439c0.88-0.144 1.607-0.692 1.995-1.443l0.007-0.015 1.259-2.476z"></path>
            <path fill="#2c2c2c" style="fill: var(--color4, #2c2c2c)" d="M3.426 20.356l-0.021 0.005c0.002 0.074-0.002 0.374-0.012 0.9-0.003 0.524-0.004 0.869-0.003 1.033 0 0.158-0.004 0.286-0.010 0.384l0.001 0.337c-0 0.104-0.007 0.207-0.021 0.308l0.001-0.012-0.018 0.207c-0.014 0.13-0.042 0.201-0.085 0.211-0.092 0.022-0.236-0.049-0.431-0.212-0.198-0.17-0.311-0.319-0.342-0.446s-0.037-1.061-0.020-2.8c0.023-1.74-0.023-2.885-0.137-3.434-0.010-0.035-0.016-0.075-0.016-0.116 0-0.056 0.011-0.11 0.032-0.159l-0.001 0.003c0.036-0.166 0.22-0.321 0.551-0.468 0.339-0.148 0.845-0.302 1.518-0.461 0.68-0.161 1.219-0.252 1.618-0.272 0.406-0.022 0.624 0.031 0.654 0.159 0.020 0.085-0.026 0.159-0.138 0.223s-0.212 0.117-0.298 0.16c-0.089 0.037-0.205 0.082-0.349 0.139-0.145 0.049-0.28 0.097-0.404 0.141-0.126 0.037-0.289 0.091-0.489 0.161-0.193 0.068-0.372 0.133-0.537 0.194-0.166 0.055-0.391 0.134-0.673 0.238s-0.465 0.17-0.548 0.197c0.012 0.020 0.023 0.051 0.033 0.094 0.078 0.333 0.121 1.13 0.127 2.393 0.553-0.107 1.024-0.233 1.482-0.39l-0.077 0.023c0.5-0.164 0.806-0.258 0.919-0.286 0.27-0.063 0.417-0.039 0.444 0.074 0.052 0.22-0.212 0.477-0.794 0.772-0.574 0.294-1.225 0.526-1.954 0.7zM10.36 18.397c-0.057-0.247-0.153-0.465-0.282-0.66l0.005 0.008c-0.129-0.201-0.281-0.334-0.453-0.398-0.457 0.25-0.788 0.729-0.996 1.436-0.202 0.699-0.238 1.321-0.11 1.866s0.343 0.853 0.644 0.924c0.486-0.22 0.836-0.67 1.050-1.348 0.219-0.688 0.266-1.297 0.142-1.828zM7.59 19.155c0.117-0.611 0.332-1.141 0.646-1.589 0.318-0.457 0.686-0.735 1.104-0.834 0.425-0.101 0.822-0.004 1.19 0.289 0.367 0.287 0.611 0.689 0.733 1.206 0.121 0.511 0.12 1.064-0.001 1.661-0.123 0.602-0.374 1.132-0.724 1.581l0.006-0.008c-0.35 0.449-0.769 0.732-1.258 0.849-0.361 0.086-0.702-0.009-1.020-0.286s-0.539-0.668-0.659-1.178c-0.122-0.517-0.128-1.080-0.017-1.69zM15.172 17.255c-0.058-0.247-0.153-0.465-0.282-0.66l0.005 0.008c-0.129-0.201-0.281-0.334-0.452-0.398-0.457 0.25-0.789 0.729-0.996 1.437-0.201 0.698-0.238 1.321-0.11 1.866s0.343 0.854 0.644 0.924c0.486-0.22 0.837-0.67 1.050-1.349 0.219-0.688 0.266-1.297 0.14-1.828zM12.402 18.013c0.118-0.611 0.332-1.141 0.646-1.589 0.318-0.457 0.686-0.735 1.104-0.834 0.425-0.101 0.822-0.004 1.19 0.29 0.367 0.287 0.611 0.689 0.733 1.206 0.121 0.51 0.12 1.063-0.001 1.66-0.123 0.59-0.362 1.114-0.717 1.572-0.351 0.45-0.769 0.732-1.258 0.849-0.361 0.086-0.702-0.009-1.021-0.285s-0.539-0.669-0.659-1.179c-0.122-0.517-0.127-1.080-0.017-1.69zM20.196 11.014c0.113-0.027 0.277 0.047 0.49 0.22 0.218 0.165 0.349 0.34 0.393 0.524s0.078 0.729 0.105 1.636c0.025 0.898 0.030 1.836 0.014 2.812-0.023 2.19-0.115 3.303-0.278 3.342-0.1 0.023-0.223-0.010-0.372-0.102-0.143-0.101-0.226-0.197-0.247-0.289s-0.041-0.282-0.055-0.57c-0.527 0.873-1.049 1.371-1.566 1.494-0.311 0.074-0.628 0-0.95-0.223-0.315-0.225-0.508-0.489-0.58-0.794-0.104-0.439-0.11-0.987-0.018-1.644 0.106-0.712 0.331-1.352 0.655-1.93l-0.015 0.028c0.329-0.602 0.745-0.962 1.247-1.082s0.924 0.098 1.265 0.654c0.007-1.588-0.074-2.821-0.244-3.7-0.050-0.212 0.002-0.337 0.158-0.374zM20.257 16.508c-0.090-0.382-0.233-0.689-0.43-0.919-0.189-0.232-0.375-0.326-0.56-0.282-0.304 0.073-0.572 0.334-0.802 0.785-0.221 0.428-0.383 0.926-0.456 1.452l-0.003 0.025c-0.070 0.526-0.064 0.966 0.020 1.32 0.025 0.121 0.103 0.221 0.208 0.274l0.002 0.001c0.111 0.056 0.23 0.069 0.357 0.039 0.276-0.066 0.601-0.352 0.975-0.86 0.382-0.509 0.614-1.058 0.7-1.647l0.002-0.135-0.012-0.053zM27.037 15.864c0.137 0.581-0.010 1.132-0.44 1.652-0.433 0.514-0.988 0.852-1.668 1.013-0.673 0.16-1.27 0.118-1.791-0.125-0.522-0.25-0.82-0.53-0.894-0.842-0.050-0.212-0.012-0.334 0.116-0.364 0.113-0.027 0.377 0.090 0.79 0.351 0.156 0.090 0.353 0.163 0.59 0.219 0.244 0.054 0.487 0.053 0.728-0.004 0.495-0.118 0.905-0.35 1.226-0.695 0.329-0.347 0.459-0.67 0.389-0.967-0.046-0.191-0.23-0.406-0.555-0.642-0.302-0.222-0.646-0.434-1.005-0.618l-0.043-0.020c-0.4-0.215-0.741-0.434-1.063-0.677l0.021 0.015c-0.326-0.244-0.511-0.455-0.553-0.632-0.026-0.111-0.040-0.239-0.040-0.37 0-0.077 0.005-0.152 0.015-0.227l-0.001 0.009c0.024-0.215 0.068-0.378 0.131-0.491 0.204-0.37 0.566-0.751 1.087-1.145 0.528-0.394 0.99-0.638 1.386-0.732 0.205-0.049 0.394-0.023 0.568 0.078s0.277 0.226 0.313 0.375c0.017 0.071-0.044 0.145-0.183 0.223s-0.351 0.188-0.639 0.332c-0.282 0.134-0.529 0.275-0.742 0.423-0.74 0.505-1.077 0.902-1.009 1.193 0.037 0.156 0.554 0.493 1.551 1.012 0.414 0.221 0.772 0.474 1.093 0.767l-0.004-0.004c0.347 0.299 0.556 0.597 0.626 0.895zM29.475 16.396c0.032 0.135 0.126 0.183 0.282 0.146 0.269-0.064 0.577-0.215 0.924-0.455 0.353-0.248 0.55-0.377 0.593-0.387 0.127-0.031 0.207 0.022 0.239 0.156 0.049 0.206-0.108 0.494-0.47 0.863-0.354 0.368-0.705 0.593-1.052 0.676-0.34 0.081-0.645 0.055-0.914-0.074-0.272-0.137-0.431-0.305-0.478-0.504s-0.063-0.46-0.050-0.784c0.011-0.332 0.036-0.768 0.073-1.308 0.043-0.549 0.071-1.001 0.084-1.355-0.314 0.157-0.528 0.249-0.641 0.276s-0.24-0.003-0.38-0.089c-0.135-0.095-0.214-0.196-0.24-0.302-0.039-0.17 0.382-0.442 1.266-0.817-0.011-0.618-0.070-1.154-0.177-1.607-0.050-0.213-0.005-0.336 0.137-0.369 0.12-0.029 0.287 0.014 0.501 0.127 0.212 0.107 0.341 0.256 0.386 0.447s0.064 0.542 0.057 1.052c0.229-0.084 0.547-0.181 0.871-0.265l0.083-0.018c0.425-0.1 0.659-0.059 0.703 0.126 0.025 0.106-0.071 0.222-0.288 0.348-0.21 0.125-0.665 0.349-1.367 0.673-0.025 0.794-0.065 1.508-0.12 2.218l0.010-0.162c-0.058 0.769-0.068 1.231-0.031 1.387zM34.226 10.826c0.319-0.076 0.651 0.017 0.997 0.279 0.345 0.255 0.548 0.513 0.609 0.775 0.060 0.255 0.033 0.538-0.080 0.849 0.11 0.086 0.174 0.168 0.193 0.246 0.047 0.198 0.081 0.549 0.102 1.052 0.029 0.502 0.049 0.83 0.063 0.983 0.021 0.153 0.035 0.276 0.043 0.372 0.006 0.088 0.008 0.177 0.007 0.268 0.014 0.183-0.030 0.287-0.129 0.311-0.127 0.031-0.259-0.054-0.396-0.254-0.131-0.209-0.246-0.488-0.343-0.839-0.441 0.95-0.931 1.489-1.469 1.617-0.326 0.077-0.681 0.015-1.065-0.185-0.378-0.21-0.602-0.463-0.673-0.761-0.1-0.425-0.068-0.986 0.097-1.684 0.163-0.704 0.434-1.359 0.815-1.966s0.79-0.962 1.23-1.066zM35.155 12.58c-0.155-0.658-0.363-0.957-0.625-0.895-0.276 0.066-0.551 0.34-0.826 0.825-0.262 0.446-0.476 0.962-0.613 1.509l-0.009 0.041c-0.138 0.556-0.172 0.98-0.105 1.27 0.027 0.119 0.109 0.215 0.217 0.261l0.002 0.001c0.116 0.047 0.241 0.055 0.375 0.023 0.333-0.079 0.656-0.391 0.969-0.936 0.311-0.553 0.471-1.17 0.482-1.854-0.004-0.111 0.041-0.19 0.135-0.234l-0.002-0.011z"></path>
            <path fill="#bbf330" style="fill: var(--color5, #bbf330)" d="M32.978 19.975c-0.305 0.081-0.543 0.306-0.641 0.597l-0.002 0.006c-1.902 5.652-7.227 9.717-13.492 9.717-3.799 0-7.254-1.495-9.808-3.934-0.165-0.16-0.39-0.259-0.638-0.259-0.075 0-0.149 0.009-0.219 0.026l0.006-0.001c-0.639 0.159-0.881 0.932-0.408 1.39 2.868 2.775 6.768 4.482 11.066 4.482 7.060 0 13.048-4.606 15.145-10.986 0.206-0.626-0.371-1.198-1.010-1.040zM4.172 14.148c0.346-0.086 0.602-0.374 0.665-0.725 1.209-6.668 7.025-11.717 14.007-11.717 4.541 0 8.588 2.135 11.196 5.463 0.22 0.281 0.582 0.416 0.928 0.33 0.583-0.145 0.847-0.823 0.48-1.298-2.918-3.772-7.478-6.2-12.604-6.2-7.862 0-14.394 5.711-15.705 13.223-0.103 0.593 0.448 1.070 1.032 0.925z"></path>
            <path fill="#bbf330" style="fill: var(--color5, #bbf330); stroke: var(--color5, #bbf330)" stroke="#bbf330" stroke-linejoin="round" stroke-linecap="butt" stroke-miterlimit="4" stroke-width="0.6277" d="M42.815 5.332c-3.767 7.241-5.422 2.465-10.725 5.27 0.53-8.406 6.148-3.291 10.725-5.27z"></path>
        </symbol>

        <!-- Mobile-menu icon-->
        <symbol id="icon-menu" viewBox="0 0 32 32">
            <path d="M2.666 8c0-0.737 0.597-1.334 1.334-1.334v0h24c0.737 0 1.334 0.597 1.334 1.334s-0.597 1.334-1.334 1.334h-24c-0.737 0-1.334-0.597-1.334-1.334v0zM2.666 16.042c0.001-0.736 0.598-1.333 1.334-1.333 0 0 0 0 0 0h24c0.012-0 0.025-0.001 0.039-0.001 0.737 0 1.334 0.597 1.334 1.334s-0.597 1.334-1.334 1.334c-0.014 0-0.027-0-0.041-0.001l0.002 0h-24c-0.737 0-1.334-0.597-1.334-1.334v0zM4 22.752c-0.72 0.022-1.295 0.61-1.295 1.333s0.575 1.311 1.293 1.333l0.002 0h24c0.012 0 0.025 0.001 0.039 0.001 0.737 0 1.334-0.597 1.334-1.334s-0.597-1.334-1.334-1.334c-0.014 0-0.027 0-0.041 0.001l0.002-0h-24z"></path>
        </symbol>
        <symbol id="icon-menu-close" viewBox="0 0 32 32">
            <path d="M19.141 16.123l10.677-10.667c0.339-0.384 0.546-0.892 0.546-1.448 0-1.212-0.983-2.195-2.195-2.195-0.557 0-1.065 0.207-1.452 0.549l0.002-0.002-10.675 10.56-10.747-10.739c-0.378-0.317-0.87-0.51-1.407-0.51-1.214 0-2.197 0.984-2.197 2.197 0 0.536 0.192 1.028 0.511 1.409l-0.003-0.003 10.72 10.845-10.499 10.363c-0.488 0.405-0.796 1.011-0.796 1.69 0 1.211 0.981 2.192 2.192 2.192 0.361 0 0.702-0.087 1.003-0.242l-0.012 0.006c0.28-0.138 0.517-0.323 0.71-0.546l0.002-0.003 10.477-10.469 10.413 10.403c0.375 0.307 0.86 0.493 1.388 0.493 1.215 0 2.2-0.985 2.2-2.2 0-0.527-0.185-1.011-0.495-1.39l0.003 0.004-10.368-10.296z"></path>
        </symbol>

        <!-- Hero section icon -->
        <symbol id="icon-arrow-left" viewBox="0 0 18 32">
            <path d="M0.48 16.965l14.862 14.16c0.239 0.228 0.563 0.368 0.92 0.368s0.681-0.14 0.921-0.369l-0.001 0 0.016-0.016c0.236-0.224 0.382-0.54 0.382-0.89s-0.147-0.666-0.382-0.889l-0.001-0-13.995-13.333 13.995-13.327c0.236-0.224 0.382-0.54 0.382-0.89s-0.147-0.666-0.382-0.889l-0.001-0-0.016-0.016c-0.239-0.228-0.563-0.368-0.92-0.368s-0.681 0.14-0.921 0.369l0.001-0-14.862 14.16c-0.255 0.243-0.413 0.586-0.413 0.965s0.158 0.722 0.413 0.965l0.001 0z"></path>
        </symbol>
        <symbol id="icon-arrow-right" viewBox="0 0 18 32">
            <path d="M17.653 15.035l-14.862-14.16c-0.239-0.228-0.563-0.368-0.92-0.368s-0.681 0.14-0.921 0.369l0.001-0-0.016 0.016c-0.235 0.224-0.382 0.539-0.382 0.889s0.146 0.665 0.381 0.889l0 0 13.995 13.333-13.995 13.328c-0.236 0.224-0.383 0.54-0.383 0.89s0.147 0.666 0.382 0.889l0.001 0 0.016 0.016c0.239 0.228 0.563 0.368 0.92 0.368s0.681-0.14 0.921-0.369l-0.001 0 14.862-14.16c0.255-0.243 0.413-0.586 0.413-0.965s-0.158-0.722-0.413-0.965l-0-0z"></path>
        </symbol>


        <!-- Offerings icon -->
        <symbol id="icon-arrow" viewBox="0 0 19 32">
            <path d="M17.904 15.594c0.228 0.229 0.369 0.544 0.369 0.893s-0.141 0.664-0.369 0.893l-12.89 12.893c-0.229 0.228-0.544 0.369-0.893 0.369s-0.664-0.141-0.893-0.369l0 0-0.598-0.595c-0.23-0.229-0.372-0.546-0.372-0.896s0.142-0.667 0.372-0.896l11.398-11.395-11.398-11.402c-0.229-0.229-0.371-0.545-0.371-0.894s0.142-0.666 0.371-0.894v0l0.595-0.595c0.229-0.23 0.546-0.372 0.896-0.372s0.667 0.142 0.896 0.372l12.886 12.89z"></path>
        </symbol>

        <!-- Reviews icon -->
        <symbol id="icon-star" viewBox="0 0 36 32">
            <path fill="#ffe550" style="fill: var(--color2, #ffe550)" d="M17.156 1.038c0.594-1.384 2.612-1.384 3.204 0l3.5 8.162c0.248 0.582 0.814 0.98 1.46 1.032l9.080 0.706c1.54 0.12 2.164 1.982 0.992 2.958l-6.92 5.752c-0.37 0.306-0.605 0.765-0.605 1.279 0 0.139 0.017 0.273 0.049 0.402l-0.002-0.011 2.114 8.6c0.36 1.456-1.274 2.608-2.592 1.828l-7.774-4.61c-0.259-0.155-0.571-0.247-0.904-0.247s-0.645 0.092-0.912 0.251l0.008-0.005-7.774 4.612c-1.316 0.78-2.95-0.372-2.592-1.828l2.114-8.6c0.029-0.117 0.046-0.251 0.046-0.389 0-0.515-0.235-0.975-0.604-1.279l-0.003-0.002-6.914-5.752c-1.172-0.976-0.548-2.84 0.99-2.96l9.080-0.704c0.655-0.048 1.204-0.454 1.458-1.021l0.004-0.011 3.5-8.164z"></path>
        </symbol>
    </defs>
</svg>
